<?xml version="1.0" encoding="UTF-8"?>
<svg version="1.1" xmlns="http://www.w3.org/2000/svg" width="512" height="512">
<path d="M0 0 C4.85857844 2.29678253 7.63468979 5.17840611 10 10 C11.13941804 17.09634472 9.00928631 22.02385966 5.5 28.0625 C4.65370292 29.57279431 3.81005777 31.08457698 2.96875 32.59765625 C2.26588867 33.85666748 2.26588867 33.85666748 1.54882812 35.14111328 C-1.3663253 40.52201597 -4.04483951 46.02412209 -6.76196289 51.50680542 C-9.17399419 56.36422312 -11.60444522 61.21245161 -14.03125 66.0625 C-15.09902784 68.19788191 -16.16673551 70.33329892 -17.234375 72.46875 C-22.15625 82.3125 -27.078125 92.15625 -32 102 C-32.66 102 -33.32 102 -34 102 C-34.35771484 103.22396484 -34.35771484 103.22396484 -34.72265625 104.47265625 C-36.25584527 108.70650849 -38.28813095 112.49028841 -40.4375 116.4375 C-44.30946885 123.6599795 -47.94410509 130.96241549 -51.4375 138.375 C-55.88643676 147.79711381 -60.61551983 157.03753444 -65.49609375 166.2421875 C-67.67464131 170.35640123 -69.76247191 174.50812898 -71.8125 178.6875 C-74.09775936 183.30675649 -76.58050177 187.6906054 -79.2980957 192.06518555 C-81.42896222 195.73971523 -83.31014042 199.51349071 -85.19140625 203.3203125 C-85.55915161 204.06031494 -85.92689697 204.80031738 -86.30578613 205.56274414 C-87.20569204 207.37425253 -88.1031003 209.18700132 -89 211 C-87.67366798 210.99943446 -87.67366798 210.99943446 -86.32054138 210.9988575 C-64.79534568 210.99173725 -43.2704104 211.01766577 -21.74530029 211.0802784 C-11.33584354 211.10976248 -0.92659085 211.12810265 9.48291016 211.12011719 C18.55693487 211.11318458 27.63064372 211.12725407 36.7045908 211.16643608 C41.50830501 211.18644829 46.31152334 211.19601584 51.11526489 211.18042374 C55.63976223 211.16607009 60.16331316 211.1798656 64.68768883 211.21495247 C66.34524539 211.22290002 68.00288769 211.22069473 69.66040993 211.20739174 C84.76248797 211.09646694 84.76248797 211.09646694 90.58999634 216.324049 C93.92220956 220.28476643 96 223.88820932 96 229.125 C93.80963631 235.4222956 89.60117694 239.6150943 84.75 243.9375 C84.1729834 244.46110107 83.5959668 244.98470215 83.00146484 245.52416992 C79.29516038 248.87707291 75.53457166 252.16549444 71.75 255.4296875 C69.96260724 257.03355333 68.29555435 258.71280731 66.625 260.4375 C62.41764659 264.7114857 57.71029395 268.30200607 53 272 C46.65070578 277.0885058 40.49476873 282.31677551 34.484375 287.80078125 C31.95029186 290.04400264 29.34483133 292.15479645 26.6875 294.25 C23.21665755 296.98672959 20.08757401 299.83117404 17 303 C12.69625246 306.93513953 8.22061708 310.64591315 3.6875 314.3125 C-1.12390944 318.22135539 -5.69431793 322.33774799 -10.25390625 326.53515625 C-12.91875166 328.92707297 -15.64831825 331.19254884 -18.4375 333.4375 C-22.43223986 336.65943101 -26.24554349 340.00655495 -30 343.5 C-34.61004336 347.78955113 -39.37782956 351.80410672 -44.28515625 355.75390625 C-47.10673495 358.0883059 -49.80590712 360.51990598 -52.5 363 C-57.82269008 367.8962657 -63.36747004 372.46693989 -69 377 C-71.86906442 379.32315364 -74.65192241 381.64647424 -77.24609375 384.28125 C-80.27239428 387.2689169 -83.439945 390.00885851 -86.6875 392.75 C-90.91035848 396.33785874 -95.09235049 399.95330117 -99.1875 403.6875 C-105.11230791 409.05958442 -111.29385963 414.1118816 -117.6015625 419.02734375 C-122.65304443 422.97625764 -127.18765971 427.12834933 -131.66015625 431.71875 C-134.97827296 434.95377531 -138.57142948 437.79464359 -142.1875 440.6875 C-145.01529452 443.01257549 -147.69487518 445.44436063 -150.375 447.9375 C-155.37258578 452.5412932 -160.63509581 456.64795916 -166.04296875 460.74609375 C-172.4325401 465.5686456 -172.4325401 465.5686456 -177.86328125 471.40234375 C-180.08546473 474.10390136 -182.37990944 476.08914155 -185.125 478.25 C-189.79461486 481.984445 -194.24012117 485.88085997 -198.61328125 489.95703125 C-201 492 -201 492 -203.9609375 493.95703125 C-207.0570901 496.03837805 -209.61207307 498.30659394 -212.3125 500.875 C-224.81987578 512.28523755 -224.81987578 512.28523755 -232.6875 512.625 C-237.48333097 512.33028413 -240.40065249 511.33598062 -244 508 C-247.69234709 503.82181777 -248.44209744 500.81374101 -248.33447266 495.45043945 C-247.74201148 491.10990451 -245.67594273 487.68177572 -243.5 483.9375 C-242.65370292 482.42720569 -241.81005777 480.91542302 -240.96875 479.40234375 C-240.50017578 478.56300293 -240.03160156 477.72366211 -239.54882812 476.85888672 C-236.6336747 471.47798403 -233.95516049 465.97587791 -231.23803711 460.49319458 C-228.82600581 455.63577688 -226.39555478 450.78754839 -223.96875 445.9375 C-222.90097216 443.80211809 -221.83326449 441.66670108 -220.765625 439.53125 C-215.84375 429.6875 -210.921875 419.84375 -206 410 C-205.34 410 -204.68 410 -204 410 C-203.76152344 409.18402344 -203.52304688 408.36804688 -203.27734375 407.52734375 C-201.74415218 403.29348446 -199.71184207 399.50972982 -197.5625 395.5625 C-193.71283365 388.38076949 -190.09714005 381.12123404 -186.625 373.75 C-181.88999883 363.71795962 -176.8346743 353.88161459 -171.66015625 344.0703125 C-169.58657929 340.13694429 -167.58069829 336.18059677 -165.625 332.1875 C-163.54296366 327.96895544 -161.2040474 323.99649744 -158.73291016 319.99682617 C-156.59354364 316.29709048 -154.69748111 312.50208941 -152.8046875 308.671875 C-152.25349243 307.56271729 -152.25349243 307.56271729 -151.69116211 306.43115234 C-150.79227197 304.62167919 -149.89588089 302.81096494 -149 301 C-150.32633202 301.00056554 -150.32633202 301.00056554 -151.67945862 301.0011425 C-173.20465432 301.00826275 -194.7295896 300.98233423 -216.25469971 300.9197216 C-226.66415646 300.89023752 -237.07340915 300.87189735 -247.48291016 300.87988281 C-256.55693487 300.88681542 -265.63064372 300.87274593 -274.7045908 300.83356392 C-279.50830501 300.81355171 -284.31152334 300.80398416 -289.11526489 300.81957626 C-293.63976223 300.83392991 -298.16331316 300.8201344 -302.68768883 300.78504753 C-304.34524539 300.77709998 -306.00288769 300.77930527 -307.66040993 300.79260826 C-322.76248797 300.90353306 -322.76248797 300.90353306 -328.58999634 295.675951 C-331.92220956 291.71523357 -334 288.11179068 -334 282.875 C-331.80963631 276.5777044 -327.60117694 272.3849057 -322.75 268.0625 C-322.1729834 267.53889893 -321.5959668 267.01529785 -321.00146484 266.47583008 C-317.29516038 263.12292709 -313.53457166 259.83450556 -309.75 256.5703125 C-307.96260724 254.96644667 -306.29555435 253.28719269 -304.625 251.5625 C-300.41764659 247.2885143 -295.71029395 243.69799393 -291 240 C-284.65150123 234.9121317 -278.49368342 229.68740925 -272.48828125 224.19921875 C-269.18718529 221.28160961 -265.72951018 218.59187421 -262.2265625 215.921875 C-259.91097282 214.04850414 -259.91097282 214.04850414 -258.08984375 211.55859375 C-255.6595735 208.58321615 -253.03098798 206.58657075 -249.9375 204.3125 C-244.56280888 200.29321184 -239.59206133 195.99757288 -234.671875 191.42578125 C-232.06012846 189.05459031 -229.37640515 186.83169055 -226.625 184.625 C-222.421856 181.23614031 -218.43796823 177.68760734 -214.5 174 C-209.69453707 169.50041006 -204.7483902 165.26896753 -199.61328125 161.14453125 C-197.00152377 159.00125044 -194.49634698 156.7761967 -192 154.5 C-187.73231626 150.60986806 -183.30568982 146.96893724 -178.8125 143.34375 C-174.87402199 140.06168499 -171.14285865 136.57921455 -167.41015625 133.06640625 C-165 131 -165 131 -162.93359375 130.02734375 C-160.21828992 128.58466717 -158.88559406 126.40698939 -157 124 C-155.37129389 122.58023974 -153.70141479 121.20676217 -152 119.875 C-147.85005422 116.55283596 -143.88433032 113.12221697 -140 109.5 C-133.72583161 103.67022656 -127.16477978 98.24275775 -120.40625 92.98046875 C-115.35359366 89.027233 -110.8149374 84.87431625 -106.33984375 80.28125 C-103.02301044 77.04747596 -99.43157015 74.20753176 -95.81640625 71.31640625 C-92.96483392 68.971077 -90.26454804 66.51543177 -87.5625 64 C-82.87129085 59.67738585 -77.93462413 55.87110671 -72.796875 52.09765625 C-68.11010265 48.58257698 -63.77017308 44.77309416 -59.6328125 40.62890625 C-52.62700823 33.63349634 -45.28021095 27.06552888 -37.4921875 20.95703125 C-34.82039181 18.85895971 -32.18921637 16.71670507 -29.5625 14.5625 C-28.20511719 13.45068359 -28.20511719 13.45068359 -26.8203125 12.31640625 C-24.85457538 10.70188809 -22.89121362 9.08447537 -20.9296875 7.46484375 C-19.94226563 6.65144531 -18.95484375 5.83804687 -17.9375 5 C-17.03902344 4.2575 -16.14054687 3.515 -15.21484375 2.75 C-10.5439671 -0.9405692 -5.76788491 -0.57923597 0 0 Z " fill="#FEAC32" transform="translate(375,0)"/>
</svg>
